# xmcd
#
# Track frame offsets:
# 150
# 13092
# 23677
# 34785
# 47675
# 65155
# 79800
# 95532
# 108320
# 123070
# 134705
# 146597
#
# Disc length: 2116 seconds
#
#
# Revision: 0
# Processed by: cddbd v1.5.2PL0 Copyright (c) Steve Scherf et al.
# Submitted via: FreeRIP 2.96 
#
DISCID=a208420c
DTITLE=texas honky tonk hits, vol.1
DYEAR=1993
DGENRE=Country
TTITLE0=merle travis - smoke, smoke that cigarette
TTITLE1=willis brothers - san antonio rose
TTITLE2=mac wiseman - waltz across texas
TTITLE3=rose lee maphis - it wasnt god made honky tonk angels
TTITLE4=johnny bond and tex ritter - sadie was a lady
TTITLE5=johnny gimble - fort worth hambone blues
TTITLE6=mac wisemann - the last letter
TTITLE7=stuart hamblen - remember me Im the one who loves you
TTITLE8=johnny bond - who stole the jukebox from lucys perfume parlor
TTITLE9=mac wiseman - bubbles in my beer
TTITLE10=mac wiseman - I love you so much it hurts
TTITLE11=johnny bond - just an average day
EXTD=
EXTT0=
EXTT1=
EXTT2=
EXTT3=
EXTT4=
EXTT5=
EXTT6=
EXTT7=
EXTT8=
EXTT9=
EXTT10=
EXTT11=
PLAYORDER=
